<?xml version="1.0" encoding="UTF-8"?>
<svg width="145px" height="122px" viewBox="0 0 145 122" version="1.1" xmlns="http://www.w3.org/2000/svg" xmlns:xlink="http://www.w3.org/1999/xlink">
    <!-- Generator: Sketch 52.5 (67469) - http://www.bohemiancoding.com/sketch -->
    <title>Group 20</title>
    <desc>Created with Sketch.</desc>
    <g id="Page-1" stroke="none" stroke-width="1" fill="none" fill-rule="evenodd">
        <g id="VUEKC_Contact_Sheet" transform="translate(-88.000000, -160.000000)">
            <g id="Group-20" transform="translate(88.000000, 160.000000)">
                <path d="M42.657,0.868 C19.383,0.868 0.341,19.91 0.341,43.184 L0.341,55.605 L25.604,55.605 L25.604,43.184 C25.604,38.676 27.391,34.406 30.635,31.162 C33.879,27.918 38.149,26.131 42.657,26.131 C47.165,26.131 51.435,27.918 54.679,31.162 C57.923,34.406 59.71,38.676 59.71,43.184 L59.71,87.605 L84.973,87.605 L84.973,43.184 C84.973,19.91 65.931,0.868 42.657,0.868" id="Fill-4" fill="#40B882"></path>
                <path d="M102.0256,0.868 C125.2996,0.868 144.3416,19.91 144.3416,43.184 L144.3416,55.605 L119.0786,55.605 L119.0786,43.184 C119.0786,38.676 117.2916,34.406 114.0476,31.162 C110.8036,27.918 106.5336,26.131 102.0256,26.131 C97.5176,26.131 93.2476,27.918 90.0036,31.162 C86.7596,34.406 84.9726,38.676 84.9726,43.184 L84.9726,87.605 L59.7096,87.605 L59.7096,43.184 C59.7096,19.91 78.7516,0.868 102.0256,0.868" id="Fill-6" fill="#364A5E"></path>
                <path d="M72.3413,13.1016 C64.5543,20.7866 59.7093,31.4466 59.7093,43.1836 L59.7093,87.6046 L84.9733,87.6046 L84.9733,43.1836 C84.9733,31.4466 80.1283,20.7866 72.3413,13.1016" id="Fill-8" fill="#408270"></path>
                <path d="M23.3475,120.1888 L13.7475,98.2258 C13.6795,98.0918 13.6795,98.0238 13.6795,97.8558 C13.6795,97.4518 14.0505,97.0138 14.5555,97.0138 C14.9935,97.0138 15.2965,97.3168 15.4655,97.7208 L24.4595,118.8418 L33.4865,97.6878 C33.6555,97.3168 33.9585,97.0138 34.3625,97.0138 C34.8345,97.0138 35.2045,97.4178 35.2045,97.8218 C35.2045,97.9568 35.2045,98.0238 35.1375,98.1588 L25.5035,120.1888 C25.3015,120.6608 24.9985,120.9638 24.4595,120.9638 L24.3915,120.9638 C23.8525,120.9638 23.5495,120.6608 23.3475,120.1888" id="Fill-10" fill="#384A5C"></path>
                <path d="M40.1893,110.9256 L40.1893,97.8896 C40.1893,97.4176 40.5933,97.0136 41.0653,97.0136 C41.5363,97.0136 41.9413,97.4176 41.9413,97.8896 L41.9413,110.7566 C41.9413,116.3146 44.9393,119.5156 49.9243,119.5156 C54.7073,119.5156 57.7733,116.6186 57.7733,110.9256 L57.7733,97.8896 C57.7733,97.4176 58.1773,97.0136 58.6483,97.0136 C59.1203,97.0136 59.5243,97.4176 59.5243,97.8896 L59.5243,110.7236 C59.5243,117.4936 55.5833,121.0986 49.8573,121.0986 C44.1983,121.0986 40.1893,117.5276 40.1893,110.9256" id="Fill-12" fill="#384A5C"></path>
                <path d="M66.16,119.852 L66.16,98.024 C66.16,97.553 66.564,97.148 67.036,97.148 L82.261,97.148 C82.699,97.148 83.07,97.519 83.07,97.957 C83.07,98.395 82.699,98.765 82.261,98.765 L67.912,98.765 L67.912,108.028 L80.746,108.028 C81.183,108.028 81.554,108.399 81.554,108.837 C81.554,109.275 81.183,109.646 80.746,109.646 L67.912,109.646 L67.912,119.111 L82.43,119.111 C82.868,119.111 83.238,119.482 83.238,119.919 C83.238,120.357 82.868,120.728 82.43,120.728 L67.036,120.728 C66.564,120.728 66.16,120.324 66.16,119.852" id="Fill-14" fill="#384A5C"></path>
                <path d="M88.7282,97.8894 C88.7282,97.4174 89.1322,97.0134 89.6042,97.0134 C90.0752,97.0134 90.4802,97.4174 90.4802,97.8894 L90.4802,112.6434 L105.3682,97.2834 C105.5032,97.1484 105.7052,97.0134 105.9752,97.0134 C106.4132,97.0134 106.8512,97.4514 106.8512,97.8894 C106.8512,98.1254 106.7492,98.3274 106.5812,98.4954 L97.5872,107.5574 L107.1872,119.3134 C107.3562,119.5154 107.4572,119.6834 107.4572,119.9534 C107.4572,120.4244 107.0192,120.8624 106.5472,120.8624 C106.2442,120.8624 106.0082,120.6944 105.8742,120.5254 L96.3412,108.8034 L90.4802,114.7324 L90.4802,119.9864 C90.4802,120.4584 90.0752,120.8624 89.6042,120.8624 C89.1322,120.8624 88.7282,120.4584 88.7282,119.9864 L88.7282,97.8894 Z" id="Fill-16" fill="#40B882"></path>
                <path d="M110.0844,109.0054 L110.0844,108.9384 C110.0844,102.2684 115.0694,96.7444 121.8744,96.7444 C125.7814,96.7444 128.2404,98.0914 130.5314,100.0454 C130.6994,100.2134 130.8684,100.4494 130.8684,100.7524 C130.8684,101.2244 130.4304,101.6284 129.9584,101.6284 C129.7224,101.6284 129.4874,101.5274 129.3524,101.3924 C127.3984,99.6074 125.1414,98.3274 121.8404,98.3274 C116.1814,98.3274 111.9034,102.9424 111.9034,108.8704 L111.9034,108.9384 C111.9034,114.9004 116.2484,119.5494 121.8744,119.5494 C125.0744,119.5494 127.3314,118.4034 129.5544,116.2814 C129.6894,116.1464 129.8914,116.0124 130.1604,116.0124 C130.5984,116.0124 131.0024,116.4164 131.0024,116.8544 C131.0024,117.1234 130.8684,117.3254 130.7334,117.4604 C128.3414,119.6834 125.7474,121.1324 121.8064,121.1324 C115.0694,121.1324 110.0844,115.7764 110.0844,109.0054" id="Fill-18" fill="#40B882"></path>
            </g>
        </g>
    </g>
</svg>